<?xml version="1.0" encoding="iso-8859-1"?>
<!-- Generator: Adobe Illustrator 19.0.0, SVG Export Plug-In . SVG Version: 6.00 Build 0)  -->
<svg version="1.1" id="Layer_1" xmlns="http://www.w3.org/2000/svg" xmlns:xlink="http://www.w3.org/1999/xlink" x="0px" y="0px"
	 viewBox="0 0 512 512" style="enable-background:new 0 0 512 512;" xml:space="preserve">
<path style="fill:#CFF09E;" d="M331.452,259.213H180.549v-21.958c0-41.671,33.781-75.451,75.451-75.451l0,0
	c41.671,0,75.451,33.781,75.451,75.451v21.958H331.452z"/>
<path style="fill:#507C5C;" d="M331.451,273.057H180.549c-7.645,0-13.845-6.2-13.845-13.845v-21.958
	c0-49.237,40.058-89.297,89.295-89.297s89.295,40.06,89.295,89.297v21.958C345.295,266.859,339.097,273.057,331.451,273.057z
	 M194.394,245.368h123.212v-8.113c0-33.971-27.637-61.607-61.606-61.607s-61.606,27.637-61.606,61.607V245.368z"/>
<circle style="fill:#CFF09E;" cx="256.001" cy="104.208" r="56.971"/>
<g>
	<path style="fill:#507C5C;" d="M256,175.028c-39.049,0-70.818-31.769-70.818-70.82c0-39.049,31.769-70.818,70.818-70.818
		s70.818,31.769,70.818,70.818C326.82,143.258,295.049,175.028,256,175.028z M256,61.078c-23.782,0-43.129,19.348-43.129,43.129
		s19.348,43.13,43.129,43.13c23.781,0,43.129-19.349,43.129-43.13S279.782,61.078,256,61.078z"/>
	<path style="fill:#507C5C;" d="M498.155,478.61H370.951c-7.645,0-13.845-6.2-13.845-13.845v-18.509
		c0-42.704,34.743-77.446,77.447-77.446c7.645,0,13.845,6.2,13.845,13.845s-6.2,13.845-13.845,13.845
		c-27.436,0-49.758,22.32-49.758,49.756v4.664h99.515v-4.664c0-4.062-0.49-8.101-1.454-12.002
		c-1.836-7.422,2.693-14.927,10.116-16.763c7.417-1.839,14.927,2.693,16.763,10.118c1.502,6.074,2.264,12.348,2.264,18.649v18.509
		C512,472.412,505.802,478.61,498.155,478.61z"/>
	<path style="fill:#507C5C;" d="M434.531,396.5c-34.116,0-61.87-27.756-61.87-61.872s27.756-61.87,61.87-61.87
		s61.87,27.756,61.87,61.87C496.403,368.745,468.647,396.5,434.531,396.5z M434.531,300.446c-18.848,0-34.181,15.333-34.181,34.181
		c0,18.848,15.333,34.182,34.181,34.182s34.181-15.334,34.181-34.182C468.712,315.779,453.38,300.446,434.531,300.446z"/>
	<path style="fill:#507C5C;" d="M141.049,478.61H13.845C6.2,478.61,0,472.411,0,464.766v-18.509
		c0-42.704,34.743-77.446,77.446-77.446c7.645,0,13.845,6.2,13.845,13.845s-6.2,13.845-13.845,13.845
		c-27.436,0-49.756,22.32-49.756,49.756v4.664h99.515v-4.664c0-4.062-0.49-8.101-1.455-12.002
		c-1.834-7.422,2.694-14.927,10.118-16.763c7.417-1.839,14.927,2.693,16.763,10.118c1.502,6.074,2.264,12.348,2.264,18.649v18.509
		C154.894,472.412,148.694,478.61,141.049,478.61z"/>
	<path style="fill:#507C5C;" d="M77.425,396.5c-34.116,0-61.87-27.756-61.87-61.872s27.756-61.87,61.87-61.87
		s61.87,27.756,61.87,61.87C139.295,368.745,111.539,396.5,77.425,396.5z M77.425,300.446c-18.848,0-34.181,15.333-34.181,34.181
		c0,18.848,15.333,34.182,34.181,34.182s34.181-15.334,34.181-34.182C111.606,315.779,96.273,300.446,77.425,300.446z"/>
	<path style="fill:#507C5C;" d="M256,390.567c-7.645,0-13.845-6.2-13.845-13.845V306.2c0-7.645,6.2-13.845,13.845-13.845
		c7.645,0,13.845,6.2,13.845,13.845v70.522C269.845,384.368,263.646,390.567,256,390.567z"/>
	<path style="fill:#507C5C;" d="M349.428,390.567H162.574c-7.645,0-13.845-6.2-13.845-13.845s6.2-13.845,13.845-13.845h186.854
		c7.645,0,13.845,6.2,13.845,13.845S357.073,390.567,349.428,390.567z"/>
</g>
<g>
</g>
<g>
</g>
<g>
</g>
<g>
</g>
<g>
</g>
<g>
</g>
<g>
</g>
<g>
</g>
<g>
</g>
<g>
</g>
<g>
</g>
<g>
</g>
<g>
</g>
<g>
</g>
<g>
</g>
</svg>
