<?xml version="1.0" encoding="UTF-8" standalone="no"?>
<svg width="172px" height="172px" viewBox="0 0 172 172" version="1.1" xmlns="http://www.w3.org/2000/svg" xmlns:xlink="http://www.w3.org/1999/xlink">
    <!-- Generator: Sketch 40.3 (33839) - http://www.bohemiancoding.com/sketch -->
    <title>computer</title>
    <desc>Created with Sketch.</desc>
    <defs></defs>
    <g id="Page-1" stroke="none" stroke-width="1" fill="none" fill-rule="evenodd">
        <g id="Desktop-CV" transform="translate(-211.000000, -2281.000000)">
            <g id="computer" transform="translate(211.000000, 2281.000000)">
                <g id="Layer_1">
                    <rect id="Rectangle-path" fill="#CEE8FA" x="26.7653061" y="27.2040816" width="117.591837" height="85.122449"></rect>
                    <g id="Group" fill="#2D527C">
                        <path d="M167.678939,0.684489796 L4.32106122,0.684489796 C2.1517551,0.684489796 0.684489796,2.1517551 0.684489796,4.32106122 L0.684489796,134.984898 C0.684489796,137.150694 2.1517551,138.621469 4.32106122,138.621469 L82.3599184,138.621469 L82.3599184,164.038857 L56.9425306,164.038857 L56.9425306,171.312 L115.018857,171.312 L115.018857,164.038857 L89.5979592,164.038857 L89.5979592,138.621469 L167.640327,138.621469 C169.809633,138.621469 171.276898,137.150694 171.276898,134.984898 L171.276898,4.32106122 C171.31551,2.15526531 169.848245,0.684489796 167.678939,0.684489796 L167.678939,0.684489796 Z M164.038857,131.386939 L7.95763265,131.386939 L7.95763265,7.95763265 L164.038857,7.95763265 L164.038857,131.386939 L164.038857,131.386939 Z" id="Shape"></path>
                        <path d="M26.1053878,116.837143 L145.891102,116.837143 C148.060408,116.837143 149.531184,115.369878 149.531184,113.204082 L149.531184,26.1053878 C149.531184,23.9360816 148.060408,22.4688163 145.891102,22.4688163 L26.1053878,22.4688163 C23.9360816,22.4688163 22.4688163,23.9360816 22.4688163,26.1053878 L22.4688163,113.239184 C22.4688163,115.40498 23.9360816,116.837143 26.1053878,116.837143 L26.1053878,116.837143 Z M29.7419592,29.7419592 L142.261551,29.7419592 L142.261551,109.602612 L29.7419592,109.602612 L29.7419592,29.7419592 L29.7419592,29.7419592 Z" id="Shape"></path>
                        <polygon id="Shape" points="56.9460408 71.4888163 77.6422041 80.1976327 77.6422041 76.5610612 61.3162449 69.6705306 77.6422041 62.7835102 77.6422041 59.1469388 56.9460408 67.8522449"></polygon>
                        <polygon id="Shape" points="79.8466122 85.6489796 82.749551 85.6489796 91.8023673 53.3410612 88.8994286 53.3410612"></polygon>
                        <polygon id="Shape" points="94.3577959 62.7835102 110.683755 69.6705306 94.3577959 76.5610612 94.3577959 80.1976327 115.053959 71.4888163 115.053959 67.8522449 94.3577959 59.1469388"></polygon>
                    </g>
                </g>
            </g>
        </g>
    </g>
</svg>