<?xml version="1.0" encoding="UTF-8" standalone="no"?>
<svg width="206px" height="182px" viewBox="0 0 206 182" version="1.1" xmlns="http://www.w3.org/2000/svg" xmlns:xlink="http://www.w3.org/1999/xlink">
    <!-- Generator: Sketch 40.3 (33839) - http://www.bohemiancoding.com/sketch -->
    <title>education</title>
    <desc>Created with Sketch.</desc>
    <defs></defs>
    <g id="Page-1" stroke="none" stroke-width="1" fill="none" fill-rule="evenodd">
        <g id="Desktop-CV" transform="translate(-194.000000, -1660.000000)">
            <g id="education" transform="translate(194.000000, 1660.000000)">
                <g id="Layer_1">
                    <path d="M140.390004,143.489762 L25.6608538,143.489762 C22.6885107,143.489762 20.2787524,141.084075 20.2787524,138.116753 L20.2787524,49.7425242 C20.2787524,46.7800132 22.6808811,44.3759295 25.6492086,44.3695154 L179.92554,44.0223524 L179.937185,44.0223524 C181.36232,44.0223524 182.729228,44.5863921 183.738749,45.5918018 C184.750678,46.5996167 185.319287,47.9682247 185.319287,49.3953612 L185.319287,137.76959 C185.319287,140.736912 182.909127,143.142599 179.937185,143.142599 C176.965244,143.142599 174.555084,140.736912 174.555084,137.76959 L174.555084,54.7807974 L31.0429552,55.1039075 L31.0429552,132.743744 L140.389602,132.743744 C143.361544,132.743744 145.771704,135.149432 145.771704,138.116753 C145.772105,141.084476 143.362347,143.489762 140.390004,143.489762 L140.390004,143.489762 Z" id="Shape" fill="#FFC61B"></path>
                    <path d="M183.251255,70.8320749 L22.3471852,70.8320749 C12.9775984,70.8320749 5.38210136,63.2498106 5.38210136,53.895652 L5.38210136,53.895652 C5.38210136,44.5418943 12.9771969,36.9592291 22.3471852,36.9592291 L183.251657,36.9592291 C192.621244,36.9592291 200.216741,44.5414934 200.216741,53.895652 L200.216741,53.895652 C200.216339,63.2498106 192.621244,70.8320749 183.251255,70.8320749 L183.251255,70.8320749 Z" id="Shape" fill="#FFEEC0"></path>
                    <g id="Group" fill="#FFC61B">
                        <path d="M183.251255,76.2050837 L22.3471852,76.2050837 C10.0245302,76.2050837 0,66.197489 0,53.895652 C0,41.593815 10.0245302,31.5862203 22.3471852,31.5862203 L183.251657,31.5862203 C195.574713,31.5862203 205.598842,41.5942159 205.598842,53.895652 C205.598842,66.1970881 195.57391,76.2050837 183.251255,76.2050837 L183.251255,76.2050837 Z M22.3471852,42.3326388 C15.9603821,42.3326388 10.7642027,47.5196388 10.7642027,53.8960529 C10.7642027,60.272467 15.9599805,65.459467 22.3471852,65.459467 L183.251657,65.459467 C189.63846,65.459467 194.834639,60.272467 194.834639,53.8960529 C194.834639,47.5196388 189.638862,42.3326388 183.251657,42.3326388 L22.3471852,42.3326388 L22.3471852,42.3326388 L22.3471852,42.3326388 Z" id="Shape"></path>
                        <path d="M67.3431267,42.1630661 L50.3475244,42.1630661 C42.5689162,42.1630661 36.2403392,35.8455815 36.2403392,28.0797137 L36.2403392,5.73540529 C36.2403392,2.7680837 38.6500975,0.362396476 41.6224405,0.362396476 L76.067809,0.362396476 C79.040152,0.362396476 81.4499103,2.7680837 81.4499103,5.73540529 L81.4499103,28.0797137 C81.4503119,35.8451806 75.1221365,42.1630661 67.3431267,42.1630661 L67.3431267,42.1630661 Z M47.0045419,11.1084141 L47.0045419,28.0797137 C47.0045419,29.9201586 48.5043665,31.4170485 50.3475244,31.4170485 L67.3427251,31.4170485 C69.1862846,31.4170485 70.6857076,29.9197577 70.6857076,28.0797137 L70.6857076,11.1084141 L47.0045419,11.1084141 L47.0045419,11.1084141 Z" id="Shape"></path>
                        <path d="M41.6224405,25.3272643 L30.8582378,25.3272643 C27.8858947,25.3272643 25.4761365,22.9215771 25.4761365,19.9542555 C25.4761365,16.9869339 27.8858947,14.5812467 30.8582378,14.5812467 L41.6224405,14.5812467 C44.5951852,14.5812467 47.0045419,16.9869339 47.0045419,19.9542555 C47.0045419,22.921978 44.5951852,25.3272643 41.6224405,25.3272643 L41.6224405,25.3272643 Z" id="Shape"></path>
                        <path d="M34.9509318,181.637604 C26.8639259,181.637604 20.2847758,175.069568 20.2847758,166.996225 L20.2847758,138.115551 C20.2847758,135.147828 22.6945341,132.742542 25.6668772,132.742542 C28.6396218,132.742542 31.0489786,135.148229 31.0489786,138.115551 L31.0489786,166.996225 C31.0489786,169.144546 32.7993762,170.891586 34.9509318,170.891586 C37.1024873,170.891586 38.852885,169.144145 38.852885,166.996225 L38.852885,160.324361 C38.852885,157.35704 41.2626433,154.951352 44.2349864,154.951352 C47.207731,154.951352 49.6170877,157.35704 49.6170877,160.324361 L49.6170877,166.996225 C49.6170877,175.07037 43.0379376,181.637604 34.9509318,181.637604 L34.9509318,181.637604 Z" id="Shape"></path>
                        <path d="M170.647509,179.48848 C162.560904,179.48848 155.981353,172.920445 155.981353,164.847101 L155.981353,158.175238 C155.981353,155.207916 158.391513,152.802229 161.363454,152.802229 C164.335396,152.802229 166.745556,155.207916 166.745556,158.175238 L166.745556,164.847101 C166.745556,166.995423 168.495953,168.742463 170.647509,168.742463 C172.799064,168.742463 174.549462,166.995022 174.549462,164.847101 L174.549462,135.966427 C174.549462,132.998705 176.959622,130.593419 179.931563,130.593419 C182.903505,130.593419 185.313665,132.999106 185.313665,135.966427 L185.313665,164.847101 C185.313665,172.920846 178.734113,179.48848 170.647509,179.48848 L170.647509,179.48848 Z" id="Shape"></path>
                    </g>
                </g>
            </g>
        </g>
    </g>
</svg>