<?xml version="1.0" encoding="UTF-8" standalone="no"?>
<svg width="212px" height="188px" viewBox="0 0 212 188" version="1.1" xmlns="http://www.w3.org/2000/svg" xmlns:xlink="http://www.w3.org/1999/xlink">
    <!-- Generator: Sketch 40.3 (33839) - http://www.bohemiancoding.com/sketch -->
    <title>1477360425_mind</title>
    <desc>Created with Sketch.</desc>
    <defs></defs>
    <g id="Page-1" stroke="none" stroke-width="1" fill="none" fill-rule="evenodd">
        <g id="Desktop-CV" transform="translate(-191.000000, -1041.000000)" fill="#41E0D5">
            <g id="1477360425_mind" transform="translate(191.000000, 1041.000000)">
                <g id="Layer_1">
                    <g id="Group">
                        <g transform="translate(46.035044, 31.067797)" id="Shape">
                            <g transform="translate(57.311640, 0.000000)">
                                <path d="M2.65331665,97.0935028 C1.22052566,97.0935028 0.0663329161,95.9384181 0.0663329161,94.5045198 L0.0663329161,23.1680791 C0.0663329161,21.7341808 1.22052566,20.579096 2.65331665,20.579096 C4.08610763,20.579096 5.24030038,21.7341808 5.24030038,23.1680791 L5.24030038,94.5045198 C5.24030038,95.9384181 4.08610763,97.0935028 2.65331665,97.0935028 L2.65331665,97.0935028 Z"></path>
                                <path d="M41.7764706,34.2144068 C41.4182728,34.2144068 41.0600751,34.1347458 40.7151439,33.9887006 C39.4150188,33.3912429 38.8445557,31.8644068 39.4282854,30.5632768 C40.4763454,28.2398305 41.0202753,25.7570621 41.0202753,23.1680791 C41.0202753,13.3033898 32.9939925,5.27090395 23.1369212,5.27090395 C13.2798498,5.27090395 5.25356696,13.3033898 5.25356696,23.1680791 C5.25356696,24.6019774 4.09937422,25.7570621 2.66658323,25.7570621 C1.23379224,25.7570621 0.0795994994,24.6019774 0.0795994994,23.1680791 C0.0795994994,10.4355932 10.4275344,0.0929378531 23.1369212,0.0929378531 C35.8463079,0.0929378531 46.1942428,10.4488701 46.1942428,23.1680791 C46.1942428,26.4872881 45.5043805,29.7002825 44.1379224,32.7008475 C43.7001252,33.6567797 42.7581977,34.2144068 41.7764706,34.2144068 L41.7764706,34.2144068 Z"></path>
                                <path d="M33.9093867,84.9186441 C32.6490613,84.9186441 31.5479349,84.0025424 31.3622028,82.7279661 C31.1499374,81.3206215 32.118398,79.9929379 33.5246558,79.7805085 C48.8740926,77.4172316 59.460826,62.9985876 57.0993742,47.6372881 C56.4227785,43.2028249 54.7644556,39.1135593 52.1642053,35.5022599 C49.6966208,32.0502825 46.4065081,29.1559322 42.6653317,27.1245763 C41.4050063,26.4474576 40.9406758,24.8675141 41.6305382,23.6194915 C42.3071339,22.3581921 43.8858573,21.8935028 45.1329161,22.5838983 C49.5639549,24.9870056 53.4510638,28.4124294 56.3697121,32.5016949 C59.4342929,36.790113 61.4110138,41.6228814 62.2070088,46.8672316 C63.5602003,55.6830508 61.3977472,64.4855932 56.1309136,71.6816384 C50.8640801,78.8644068 43.1031289,83.5776836 34.3073842,84.9186441 C34.1747184,84.9053672 34.0420526,84.9186441 33.9093867,84.9186441 L33.9093867,84.9186441 Z"></path>
                                <path d="M25.7239049,116.875989 C24.3707134,116.875989 23.2430538,115.827119 23.1501877,114.472881 C23.0573217,113.05226 24.1319149,111.804237 25.5514393,111.711299 C29.7171464,111.419209 33.7767209,110.064972 37.3188986,107.80791 C42.3469337,104.581638 46.0748436,99.6559322 47.7994994,93.9336158 C49.5108886,88.2776836 49.179224,82.1836158 46.8708385,76.7932203 C46.3136421,75.4788136 46.9106383,73.9519774 48.22403,73.3943503 C49.5374218,72.8367232 51.0630788,73.4341808 51.6202753,74.7485876 C54.4062578,81.2675141 54.8042553,88.6096045 52.7479349,95.4338983 C50.6650814,102.337853 46.1677096,108.272599 40.1048811,112.162712 C35.8463079,114.89774 30.9376721,116.530791 25.909637,116.875989 C25.8433041,116.875989 25.7902378,116.875989 25.7239049,116.875989 L25.7239049,116.875989 Z"></path>
                                <path d="M19.2100125,125.771469 C8.64981227,125.771469 0.0663329161,117.181356 0.0663329161,106.612994 L0.0663329161,72.3587571 C0.0663329161,70.9248588 1.22052566,69.769774 2.65331665,69.769774 C4.08610763,69.769774 5.24030038,70.9248588 5.24030038,72.3587571 L5.24030038,106.612994 C5.24030038,110.330508 6.69962453,113.835593 9.35294118,116.49096 C12.0062578,119.146328 15.5086358,120.60678 19.2232791,120.60678 C24.5697121,120.60678 29.5181477,117.473446 31.8397997,112.614124 C32.4500626,111.326271 34.0022528,110.781921 35.2891114,111.392655 C36.57597,112.00339 37.1198999,113.55678 36.509637,114.844633 C34.9707134,118.057627 32.5694618,120.792655 29.571214,122.731073 C26.4668335,124.722599 22.8848561,125.771469 19.2100125,125.771469 L19.2100125,125.771469 Z"></path>
                                <path d="M27.4485607,26.8988701 C26.5331665,26.8988701 25.7902378,26.1553672 25.7902378,25.2392655 C25.7902378,21.7607345 22.9644556,18.9460452 19.5018773,18.9460452 C18.5864831,18.9460452 17.8435544,18.2025424 17.8435544,17.2864407 C17.8435544,16.370339 18.5864831,15.6268362 19.5018773,15.6268362 C24.7952441,15.6268362 29.1068836,19.9418079 29.1068836,25.2392655 C29.1068836,26.1553672 28.3639549,26.8988701 27.4485607,26.8988701 L27.4485607,26.8988701 Z"></path>
                                <path d="M15.1106383,61.2858757 C14.2217772,61.2858757 13.4788486,60.5822034 13.4523154,59.6793785 C13.3594493,56.6389831 14.2217772,53.7180791 15.9596996,51.2353107 C17.6445557,48.8322034 20.085607,46.9867232 22.8317897,46.0440678 C23.6941176,45.7387006 24.6360451,46.2033898 24.9411765,47.0663842 C25.2463079,47.9293785 24.7819775,48.8720339 23.9196496,49.1774011 C19.4886108,50.7042373 16.6230288,54.8864407 16.7689612,59.5731638 C16.7954944,60.4892655 16.0790989,61.259322 15.1637046,61.2858757 C15.1371715,61.2858757 15.1239049,61.2858757 15.1106383,61.2858757 L15.1106383,61.2858757 Z"></path>
                                <path d="M37.3586984,67.1940678 C36.7749687,67.1940678 36.2045056,66.8754237 35.8993742,66.3310734 C35.461577,65.5211864 35.7534418,64.5121469 36.5627034,64.0740113 C42.2275344,60.9805085 44.3236546,53.8375706 41.2325407,48.1550847 C40.7947434,47.3451977 41.0866083,46.3361582 41.8958698,45.8980226 C42.7051314,45.459887 43.7133917,45.7519774 44.151189,46.5618644 C48.131164,53.8375706 45.4380476,62.9985876 38.1679599,66.9816384 C37.8893617,67.1276836 37.62403,67.1940678 37.3586984,67.1940678 L37.3586984,67.1940678 Z"></path>
                            </g>
                            <g>
                                <path d="M59.9649562,97.0935028 C58.5321652,97.0935028 57.3779725,95.9384181 57.3779725,94.5045198 L57.3779725,23.1680791 C57.3779725,21.7341808 58.5321652,20.579096 59.9649562,20.579096 C61.3977472,20.579096 62.5519399,21.7341808 62.5519399,23.1680791 L62.5519399,94.5045198 C62.5519399,95.9384181 61.3977472,97.0935028 59.9649562,97.0935028 L59.9649562,97.0935028 Z"></path>
                                <path d="M20.8418023,34.2144068 C19.8600751,34.2144068 18.9181477,33.6435028 18.4803504,32.7008475 C17.1138924,29.7002825 16.42403,26.4872881 16.42403,23.1680791 C16.42403,10.4355932 26.771965,0.0929378531 39.4813517,0.0929378531 C52.1907384,0.0929378531 62.5386733,10.4488701 62.5386733,23.1680791 C62.5386733,24.6019774 61.3844806,25.7570621 59.9516896,25.7570621 C58.5188986,25.7570621 57.3647059,24.6019774 57.3647059,23.1680791 C57.3647059,13.3033898 49.338423,5.27090395 39.4813517,5.27090395 C29.6242804,5.27090395 21.5979975,13.3033898 21.5979975,23.1680791 C21.5979975,25.7437853 22.1286608,28.2265537 23.1899875,30.5632768 C23.7869837,31.8644068 23.2032541,33.4045198 21.9031289,33.9887006 C21.5581977,34.1480226 21.2,34.2144068 20.8418023,34.2144068 L20.8418023,34.2144068 Z"></path>
                                <path d="M28.7088861,84.9186441 C28.5762203,84.9186441 28.4435544,84.9053672 28.3108886,84.8920904 C19.5018773,83.5378531 11.7541927,78.8378531 6.4873592,71.6550847 C1.22052566,64.4723164 -0.941927409,55.6564972 0.41126408,46.840678 C1.22052566,41.5963277 3.18397997,36.7635593 6.2485607,32.4751412 C9.18047559,28.3858757 13.0675845,24.960452 17.4853567,22.5573446 C18.7456821,21.880226 20.3111389,22.3449153 20.9877347,23.5929379 C21.6643304,24.8542373 21.2,26.420904 19.9529412,27.0980226 C16.2117647,29.1293785 12.9216521,32.0237288 10.4540676,35.4757062 C7.86708385,39.1002825 6.20876095,43.1762712 5.51889862,47.6107345 C3.15744681,62.9720339 13.7309136,77.4039548 29.093617,79.7539548 C30.4998748,79.9663842 31.4683354,81.2940678 31.2560701,82.7014124 C31.0570713,84.0025424 29.9559449,84.9186441 28.7088861,84.9186441 L28.7088861,84.9186441 Z"></path>
                                <path d="M36.894368,116.875989 L36.7086358,116.875989 C31.6806008,116.530791 26.771965,114.89774 22.5133917,112.162712 C16.4372966,108.272599 11.9531915,102.324576 9.87033792,95.4338983 C7.81401752,88.6096045 8.21201502,81.2675141 10.9979975,74.7485876 C11.555194,73.4341808 13.0808511,72.8234463 14.3942428,73.3943503 C15.7076345,73.9519774 16.3178974,75.4788136 15.7474343,76.7932203 C13.4390488,82.1968927 13.1073842,88.2776836 14.8187735,93.9336158 C16.5434293,99.6559322 20.2713392,104.581638 25.2993742,107.80791 C28.8415519,110.078249 32.9011264,111.432486 37.0668335,111.711299 C38.4863579,111.804237 39.5609512,113.05226 39.4680851,114.472881 C39.375219,115.827119 38.2342929,116.875989 36.894368,116.875989 L36.894368,116.875989 Z"></path>
                                <path d="M43.4082603,125.771469 C39.7334168,125.771469 36.1514393,124.709322 33.0603254,122.717797 C30.0620776,120.779379 27.660826,118.04435 26.1219024,114.831356 C25.5116395,113.543503 26.0555695,111.990113 27.342428,111.379379 C28.6292866,110.768644 30.1814768,111.312994 30.7917397,112.600847 C33.1133917,117.460169 38.0618273,120.593503 43.4082603,120.593503 C47.1229036,120.593503 50.6252816,119.133051 53.2785982,116.477684 C55.9319149,113.822316 57.391239,110.317232 57.391239,106.599718 L57.391239,72.3454802 C57.391239,70.9115819 58.5454318,69.7564972 59.9782228,69.7564972 C61.4110138,69.7564972 62.5652065,70.9115819 62.5652065,72.3454802 L62.5652065,106.599718 C62.5519399,117.181356 53.9684606,125.771469 43.4082603,125.771469 L43.4082603,125.771469 Z"></path>
                                <path d="M41.2060075,99.350565 C40.7549437,99.350565 40.3038798,99.1646893 39.9722153,98.7929379 C39.3619524,98.1158192 39.4150188,97.0669492 40.1048811,96.4429379 C44.5093867,92.4864407 45.6370463,86.0870056 42.8510638,80.869209 C42.4132666,80.059322 42.718398,79.0502825 43.5276596,78.6254237 C44.3369212,78.1872881 45.3451815,78.4926554 45.7697121,79.3025424 C49.2720901,85.8745763 47.8525657,93.9336158 42.3071339,98.9124294 C41.9887359,99.2045198 41.5907384,99.350565 41.2060075,99.350565 L41.2060075,99.350565 Z"></path>
                                <path d="M40.9008761,45.1943503 C40.5692115,45.1943503 40.2375469,45.1014124 39.9456821,44.8889831 C39.1894869,44.3579096 39.0170213,43.3223164 39.534418,42.5788136 C41.1529412,40.2553672 41.7366708,35.8341808 41.0070088,31.2935028 C40.3834793,27.3768362 38.8710889,23.8451977 36.9607009,21.8271186 C36.3371715,21.1632768 36.3637046,20.1144068 37.0270338,19.4771186 C37.690363,18.8531073 38.738423,18.879661 39.375219,19.5435028 C41.763204,22.0661017 43.5541927,26.1553672 44.2971214,30.7757062 C45.1594493,36.2059322 44.3899875,41.4502825 42.2673342,44.490678 C41.9356696,44.9420904 41.4182728,45.1943503 40.9008761,45.1943503 L40.9008761,45.1943503 Z"></path>
                                <path d="M29.5181477,67.2471751 C29.2262829,67.2471751 28.9211514,67.1675141 28.6558198,67.0081921 C24.9677096,64.7511299 22.3807259,61.1929379 21.3724656,56.9974576 C20.3642053,52.8019774 21.040801,48.4471751 23.2961202,44.7562147 C23.7737171,43.9728814 24.7952441,43.7338983 25.5779725,44.2118644 C26.3607009,44.6898305 26.5994994,45.7121469 26.1219024,46.4954802 C24.3309136,49.429661 23.7869837,52.8816384 24.5962453,56.2274011 C25.4055069,59.5731638 27.4618273,62.3878531 30.3937422,64.180226 C31.1764706,64.6581921 31.4152691,65.6805085 30.9376721,66.4638418 C30.6192741,66.9683616 30.0753442,67.2471751 29.5181477,67.2471751 L29.5181477,67.2471751 Z"></path>
                            </g>
                        </g>
                        <path d="M126.059074,132.303672 C125.196746,132.303672 124.467084,131.639831 124.400751,130.763559 C124.334418,129.847458 125.02428,129.050847 125.939675,128.99774 C149.156195,127.377966 170.316395,122.890395 185.493367,116.358192 C200.39174,109.958757 208.590488,102.019209 208.590488,94 C208.590488,84.1618644 196.332165,74.5892655 174.9597,67.7384181 C174.084105,67.4596045 173.606508,66.530226 173.885106,65.6539548 C174.163705,64.7776836 175.092365,64.2997175 175.96796,64.5785311 C186.992491,68.1101695 195.708636,72.3454802 201.890864,77.1915254 C208.537422,82.3960452 211.920401,88.0519774 211.920401,94 C211.920401,98.9124294 209.598748,103.65226 205.008511,108.113277 C200.749937,112.242373 194.634043,116.039548 186.806758,119.411864 C171.298123,126.076836 149.753191,130.670621 126.178473,132.316949 C126.138673,132.303672 126.098874,132.303672 126.059074,132.303672 L126.059074,132.303672 Z" id="Shape"></path>
                        <path d="M58.571965,128.918079 C58.4790989,128.918079 58.3729662,128.904802 58.2668335,128.891525 C41.2458073,125.771469 26.864831,121.031638 16.6628285,115.189831 C5.79749687,108.962994 0.0663329161,101.634181 0.0663329161,94 C0.0663329161,90.1497175 1.51239049,86.3658192 4.37797247,82.7545198 C7.04455569,79.3822034 10.9449312,76.1824859 15.9596996,73.2217514 C25.7106383,67.4728814 39.5211514,62.7463277 55.9186483,59.559887 C56.820776,59.3872881 57.6831039,59.9714689 57.868836,60.8742938 C58.0413016,61.7771186 57.457572,62.640113 56.5554443,62.8259887 C40.5294118,65.9460452 27.0770964,70.5398305 17.6445557,76.089548 C8.31814768,81.5861582 3.38297872,87.7864407 3.38297872,94.0132768 C3.38297872,100.386158 8.5436796,106.719209 18.3211514,112.322034 C28.1914894,117.977966 42.2142678,122.585028 58.8638298,125.638701 C59.7659574,125.798023 60.3629537,126.674294 60.1904881,127.563842 C60.0578223,128.360452 59.3546934,128.918079 58.571965,128.918079 L58.571965,128.918079 Z" id="Shape"></path>
                        <path d="M150.49612,187.960169 C147.206008,187.960169 143.557697,187.176836 139.590989,185.596893 C132.400501,182.729096 124.440551,177.405085 115.963204,169.74435 C115.286608,169.133616 115.233542,168.084746 115.843805,167.39435 C116.454068,166.717232 117.502128,166.664124 118.19199,167.274859 C130.768711,178.626554 142.085106,184.627684 150.482854,184.627684 C153.056571,184.627684 155.338423,184.070056 157.315144,182.928249 C161.361452,180.591525 163.974969,175.944633 165.089362,169.107062 C166.217021,162.203107 165.765957,153.493503 163.749437,143.217232 C163.576971,142.314407 164.160701,141.451412 165.062829,141.265537 C165.964956,141.092938 166.827284,141.677119 167.013016,142.579944 C171.404255,164.924859 168.55194,180.272881 158.973467,185.809322 C156.466083,187.24322 153.6403,187.960169 150.49612,187.960169 L150.49612,187.960169 Z" id="Shape"></path>
                        <path d="M46.4595745,45.8714689 C45.6768461,45.8714689 44.9869837,45.3138418 44.8277847,44.5172316 C40.6886108,22.6635593 43.6072591,7.63418079 53.0397997,2.19067797 C59.8588235,-1.75254237 69.4107635,-0.238983051 80.660826,6.55875706 C91.2475594,12.9581921 102.935419,23.7389831 114.477347,37.7327684 C115.061076,38.4364407 114.954944,39.4853107 114.251815,40.0694915 C113.548686,40.6536723 112.500626,40.5474576 111.916896,39.8437853 C100.600501,26.1420904 89.2045056,15.6135593 78.9361702,9.41327684 C68.787234,3.27937853 60.4027534,1.77909605 54.6981227,5.07175141 C50.7181477,7.36864407 48.1178974,11.9225989 46.9637046,18.6008475 C45.8095119,25.3454802 46.1809762,33.8559322 48.0913642,43.9064972 C48.2638298,44.809322 47.6668335,45.6723164 46.7647059,45.8449153 C46.6585732,45.8714689 46.5657071,45.8714689 46.4595745,45.8714689 L46.4595745,45.8714689 Z" id="Shape"></path>
                        <path d="M61.5038798,187.960169 C58.3596996,187.960169 55.5206508,187.24322 53.0397997,185.809322 C47.9852315,182.888418 44.787985,177.405085 43.5674593,169.505367 C42.4265332,162.163277 43.0102628,152.856215 45.2921151,141.862994 C45.4778473,140.960169 46.3534418,140.389266 47.2555695,140.575141 C48.1576971,140.761017 48.7281602,141.637288 48.542428,142.540113 C44.1379224,163.756497 46.3269086,178.09548 54.6981227,182.941525 C58.4260325,185.092373 63.281602,185.211864 69.1188986,183.273446 C75.0225282,181.321751 81.6425532,177.378531 88.8197747,171.576554 C91.3138924,169.558475 93.8610763,167.314689 96.4215269,164.885028 C97.0848561,164.261017 98.1329161,164.287571 98.7697121,164.951412 C99.3932416,165.615254 99.3667084,166.664124 98.7033792,167.301412 C96.0898623,169.784181 93.4630788,172.09435 90.9026283,174.165537 C83.4202753,180.233051 76.4420526,184.362147 70.1536921,186.433333 C67.0625782,187.442373 64.1704631,187.960169 61.5038798,187.960169 L61.5038798,187.960169 Z" id="Shape"></path>
                        <path d="M159.54393,68.1765537 C159.371464,68.1765537 159.185732,68.15 159.013267,68.0836158 C158.150939,67.7915254 157.686608,66.8488701 157.978473,65.9725989 C163.165707,50.6909605 165.83229,36.9096045 165.686358,26.1155367 C165.593492,18.6539548 164.054568,8.96186441 157.315144,5.05847458 C148.86433,0.17259887 134.57622,5.90819209 118.11239,20.7782486 C117.435795,21.3889831 116.387735,21.3358757 115.764205,20.6587571 C115.153942,19.9816384 115.207009,18.9327684 115.883605,18.3087571 C124.387484,10.6347458 132.347434,5.28418079 139.564456,2.40310734 C147.338673,-0.69039548 153.865832,-0.770056497 158.973467,2.17740113 C162.276846,4.08926554 164.82403,7.20932203 166.508886,11.4313559 C168.08761,15.3745763 168.923404,20.3002825 169.003004,26.0624294 C169.148936,37.2415254 166.429287,51.4079096 161.122653,67.0347458 C160.870588,67.7384181 160.233792,68.1765537 159.54393,68.1765537 L159.54393,68.1765537 Z" id="Shape"></path>
                        <path d="M47.3882353,56.0813559 C43.7133917,56.0813559 40.7284105,53.0940678 40.7284105,49.4163842 C40.7284105,45.7387006 43.7133917,42.7514124 47.3882353,42.7514124 C51.0630788,42.7514124 54.0480601,45.7387006 54.0480601,49.4163842 C54.0480601,53.0940678 51.0498123,56.0813559 47.3882353,56.0813559 L47.3882353,56.0813559 Z M47.3882353,46.0573446 C45.5441802,46.0573446 44.0450563,47.5576271 44.0450563,49.4031073 C44.0450563,51.2485876 45.5441802,52.7488701 47.3882353,52.7488701 C49.2322904,52.7488701 50.7314143,51.2485876 50.7314143,49.4031073 C50.7314143,47.5576271 49.2322904,46.0573446 47.3882353,46.0573446 L47.3882353,46.0573446 Z" id="Shape"></path>
                        <path d="M164.479099,144.624576 C160.804255,144.624576 157.819274,141.637288 157.819274,137.959605 C157.819274,134.281921 160.804255,131.294633 164.479099,131.294633 C168.153942,131.294633 171.138924,134.281921 171.138924,137.959605 C171.138924,141.637288 168.153942,144.624576 164.479099,144.624576 L164.479099,144.624576 Z M164.479099,134.600565 C162.635044,134.600565 161.13592,136.100847 161.13592,137.946328 C161.13592,139.791808 162.635044,141.29209 164.479099,141.29209 C166.323154,141.29209 167.822278,139.791808 167.822278,137.946328 C167.822278,136.100847 166.336421,134.600565 164.479099,134.600565 L164.479099,134.600565 Z" id="Shape"></path>
                        <path d="M112.805757,172.120904 C109.130914,172.120904 106.145932,169.133616 106.145932,165.455932 C106.145932,161.778249 109.130914,158.79096 112.805757,158.79096 C116.480601,158.79096 119.465582,161.778249 119.465582,165.455932 C119.465582,169.133616 116.480601,172.120904 112.805757,172.120904 L112.805757,172.120904 Z M112.805757,162.110169 C110.961702,162.110169 109.462578,163.610452 109.462578,165.455932 C109.462578,167.301412 110.961702,168.801695 112.805757,168.801695 C114.649812,168.801695 116.148936,167.301412 116.148936,165.455932 C116.148936,163.610452 114.649812,162.110169 112.805757,162.110169 L112.805757,162.110169 Z" id="Shape"></path>
                        <path d="M47.746433,143.403107 C45.0665832,143.403107 42.8908636,141.225706 42.8908636,138.543785 C42.8908636,135.861864 45.0665832,133.684463 47.746433,133.684463 C50.4262829,133.684463 52.6020025,135.861864 52.6020025,138.543785 C52.6020025,141.225706 50.4262829,143.403107 47.746433,143.403107 L47.746433,143.403107 Z M47.746433,137.016949 C46.8973717,137.016949 46.2075094,137.707345 46.2075094,138.557062 C46.2075094,139.40678 46.8973717,140.097175 47.746433,140.097175 C48.5954944,140.097175 49.2853567,139.40678 49.2853567,138.557062 C49.2853567,137.707345 48.5954944,137.016949 47.746433,137.016949 L47.746433,137.016949 Z" id="Shape"></path>
                        <path d="M122.105632,135.689266 C119.425782,135.689266 117.250063,133.511864 117.250063,130.829944 C117.250063,128.148023 119.425782,125.970621 122.105632,125.970621 C124.785482,125.970621 126.961202,128.148023 126.961202,130.829944 C126.961202,133.511864 124.785482,135.689266 122.105632,135.689266 L122.105632,135.689266 Z M122.105632,129.303107 C121.256571,129.303107 120.566708,129.993503 120.566708,130.84322 C120.566708,131.692938 121.256571,132.383333 122.105632,132.383333 C122.954693,132.383333 123.644556,131.692938 123.644556,130.84322 C123.644556,129.993503 122.954693,129.303107 122.105632,129.303107 L122.105632,129.303107 Z" id="Shape"></path>
                        <path d="M171.828786,69.2918079 C169.148936,69.2918079 166.973217,67.1144068 166.973217,64.4324859 C166.973217,61.750565 169.148936,59.5731638 171.828786,59.5731638 C174.508636,59.5731638 176.684355,61.750565 176.684355,64.4324859 C176.684355,67.1144068 174.495369,69.2918079 171.828786,69.2918079 L171.828786,69.2918079 Z M171.828786,62.8923729 C170.979725,62.8923729 170.289862,63.5827684 170.289862,64.4324859 C170.289862,65.2822034 170.979725,65.9725989 171.828786,65.9725989 C172.677847,65.9725989 173.36771,65.2822034 173.36771,64.4324859 C173.36771,63.5827684 172.664581,62.8923729 171.828786,62.8923729 L171.828786,62.8923729 Z" id="Shape"></path>
                        <path d="M114.649812,26.5669492 C111.969962,26.5669492 109.794243,24.389548 109.794243,21.7076271 C109.794243,19.0257062 111.969962,16.8483051 114.649812,16.8483051 C117.329662,16.8483051 119.505382,19.0257062 119.505382,21.7076271 C119.505382,24.389548 117.329662,26.5669492 114.649812,26.5669492 L114.649812,26.5669492 Z M114.649812,20.180791 C113.800751,20.180791 113.110889,20.8711864 113.110889,21.720904 C113.110889,22.5706215 113.800751,23.2610169 114.649812,23.2610169 C115.498874,23.2610169 116.188736,22.5706215 116.188736,21.720904 C116.188736,20.8711864 115.498874,20.180791 114.649812,20.180791 L114.649812,20.180791 Z" id="Shape"></path>
                    </g>
                </g>
            </g>
        </g>
    </g>
</svg>