<?xml version="1.0" encoding="UTF-8" standalone="no"?>
<svg width="194px" height="194px" viewBox="0 0 194 194" version="1.1" xmlns="http://www.w3.org/2000/svg" xmlns:xlink="http://www.w3.org/1999/xlink">
    <!-- Generator: Sketch 40.3 (33839) - http://www.bohemiancoding.com/sketch -->
    <title>money</title>
    <desc>Created with Sketch.</desc>
    <defs></defs>
    <g id="Page-1" stroke="none" stroke-width="1" fill="none" fill-rule="evenodd">
        <g id="Desktop-CV" transform="translate(-674.000000, -1961.000000)">
            <g id="money" transform="translate(674.000000, 1961.000000)">
                <g id="Capa_1">
                    <g id="Group">
                        <path d="M165.58851,28.4114902 C147.268824,10.088 122.912314,0 97,0 C71.0876863,0 46.7311765,10.088 28.4114902,28.4114902 C10.0918039,46.7349804 0,71.0876863 0,97 C0,122.912314 10.088,147.268824 28.4114902,165.58851 C46.7349804,183.908196 71.0876863,194 97,194 C122.912314,194 147.268824,183.912 165.58851,165.58851 C183.908196,147.26502 194,122.912314 194,97 C194,71.0876863 183.912,46.7311765 165.58851,28.4114902 L165.58851,28.4114902 Z M97,187.81102 C46.9289804,187.81102 6.18898039,147.07102 6.18898039,97 C6.18898039,46.9289804 46.9289804,6.18898039 97,6.18898039 C147.07102,6.18898039 187.81102,46.9289804 187.81102,97 C187.81102,147.07102 147.07102,187.81102 97,187.81102 L97,187.81102 Z" id="Shape" fill="#507C5C"></path>
                        <g id="XMLID_1_" transform="translate(10.183064, 10.183064)">
                            <g id="Group">
                                <path d="M86.8169356,0.125563075 C134.594191,0.125563075 173.508308,39.0396807 173.508308,86.8169356 C173.508308,134.594191 134.594191,173.508308 86.8169356,173.508308 C39.0396807,173.508308 0.125563075,134.594191 0.125563075,86.8169356 C0.125563075,39.0396807 39.0396807,0.125563075 86.8169356,0.125563075 L86.8169356,0.125563075 Z M167.307916,86.8169356 C167.307916,42.4251709 131.2087,6.32595523 86.8169356,6.32595523 C42.4251709,6.32595523 6.32595523,42.4251709 6.32595523,86.8169356 C6.32595523,131.2087 42.4251709,167.307916 86.8169356,167.307916 C131.2087,167.307916 167.307916,131.2087 167.307916,86.8169356 L167.307916,86.8169356 Z" id="Shape" fill="#507C5C"></path>
                                <path d="M86.8169356,6.32595523 C131.2087,6.32595523 167.307916,42.4251709 167.307916,86.8169356 C167.307916,131.2087 131.2087,167.307916 86.8169356,167.307916 C42.4251709,167.307916 6.32595523,131.2087 6.32595523,86.8169356 C6.32595523,42.4251709 42.4251709,6.32595523 86.8169356,6.32595523 L86.8169356,6.32595523 Z" id="Shape" fill="#CFF09E"></path>
                            </g>
                        </g>
                        <path d="M89.5405098,37.2213725 C89.4796471,37.2213725 89.4149804,37.2251765 89.3541176,37.2289804 C89.3084706,37.2327843 89.2666275,37.2365882 89.2209804,37.2441961 C89.1677255,37.248 89.1144706,37.2556078 89.0612157,37.2670196 C89.0117647,37.2784314 88.9623137,37.2898431 88.9090588,37.3012549 C88.8634118,37.3126667 88.8215686,37.3240784 88.7759216,37.3354902 C88.7226667,37.3507059 88.6694118,37.3659216 88.6161569,37.3811373 C88.5743137,37.3963529 88.5324706,37.4115686 88.4906275,37.4267843 C88.4411765,37.4458039 88.3917255,37.4686275 88.3384706,37.4876471 C88.2966275,37.5066667 88.2509804,37.5294902 88.2091373,37.5523137 C88.1634902,37.5751373 88.1216471,37.5979608 88.0798039,37.6207843 C88.0341569,37.6474118 87.9885098,37.6778431 87.9390588,37.7044706 C87.9048235,37.731098 87.8705882,37.7539216 87.832549,37.7767451 C87.783098,37.8109804 87.737451,37.8452157 87.6918039,37.8832549 C87.6613725,37.9098824 87.6271373,37.9327059 87.6005098,37.9593333 C87.5548627,37.9973725 87.5130196,38.0392157 87.4673725,38.0772549 C87.4369412,38.1076863 87.4065098,38.1381176 87.3798824,38.1647451 C87.3418431,38.2065882 87.3038039,38.2446275 87.2695686,38.2864706 C87.2353333,38.3245098 87.204902,38.362549 87.1744706,38.4043922 C87.1440392,38.4386275 87.1174118,38.4804706 87.0907843,38.5147059 C87.056549,38.5641569 87.0223137,38.6136078 86.9918824,38.6668627 C86.9804706,38.6858824 86.9652549,38.704902 86.9538431,38.7239216 L79.2280784,51.6686667 C78.3531765,53.1369804 78.8324706,55.0389412 80.3007843,55.9138431 C80.7952941,56.210549 81.3430588,56.3512941 81.8832157,56.3512941 C82.936902,56.3512941 83.9639608,55.8111373 84.5459608,54.8449412 L86.5201961,51.5355294 L86.5201961,97.9814118 C86.5201961,99.6931765 87.9048235,101.077804 89.6127843,101.077804 L104.398627,101.077804 C106.110392,101.077804 107.49502,99.6931765 107.49502,97.9814118 L107.49502,40.3139608 C107.49502,38.6021961 106.110392,37.2175686 104.398627,37.2175686 L89.6127843,37.2175686 C89.5823529,37.2175686 89.5595294,37.2213725 89.5405098,37.2213725 L89.5405098,37.2213725 Z M92.7015686,43.4103529 L101.298431,43.4103529 L101.298431,94.8888235 L92.7015686,94.8888235 L92.7015686,43.4103529 L92.7015686,43.4103529 Z" id="Shape" fill="#507C5C"></path>
                        <path d="M125.597882,149.075686 C126.408118,149.075686 127.218353,148.756157 127.82698,148.124706 C129.013804,146.896039 128.975765,144.933216 127.743294,143.750196 C125.620706,141.711294 123.326941,139.904431 120.888627,138.344824 L120.888627,118.263922 C120.888627,116.552157 119.504,115.167529 117.796039,115.167529 C116.084275,115.167529 114.703451,116.552157 114.703451,118.263922 L114.703451,135.04302 C112.512392,134.092039 110.249059,133.316039 107.921059,132.726431 C108.297647,131.064118 108.506863,129.318118 108.506863,127.541686 C108.506863,124.319765 107.814549,121.215765 106.703804,118.495961 L111.789647,110.808235 C112.73302,109.381765 112.34502,107.460784 110.918549,106.517412 C109.492078,105.574039 107.567294,105.962039 106.623922,107.38851 L103.177569,112.603686 C101.222353,110.344157 99.0084706,108.974745 97.0038039,108.974745 C94.9991373,108.974745 92.781451,110.344157 90.8338431,112.603686 L87.3760784,107.384706 C86.4327059,105.958235 84.5117255,105.566431 83.0890588,106.513608 C81.6625882,107.45698 81.2707843,109.377961 82.2141569,110.804431 L87.3,118.492157 C86.1892549,121.211961 85.4969412,124.315961 85.4969412,127.537882 C85.4969412,129.318118 85.7099608,131.060314 86.086549,132.722627 C83.758549,133.308431 81.4914118,134.088235 79.3041569,135.039216 L79.3041569,118.263922 C79.3041569,116.552157 77.9195294,115.167529 76.2115686,115.167529 C74.4998039,115.167529 73.1151765,116.552157 73.1151765,118.263922 L73.1151765,138.344824 C70.6768627,139.904431 68.383098,141.711294 66.2605098,143.750196 C65.0280392,144.93702 64.99,146.896039 66.1768235,148.124706 C66.785451,148.756157 67.5956863,149.075686 68.4097255,149.075686 C69.1819216,149.075686 69.9541176,148.790392 70.5551373,148.208392 C74.8307451,144.100157 79.9241961,141.083647 85.4855294,139.330039 L82.2179608,144.271333 C81.2745882,145.697804 81.6625882,147.618784 83.0890588,148.562157 C83.614,148.908314 84.2074118,149.07949 84.7932157,149.07949 C85.797451,149.07949 86.7826667,148.588784 87.3798824,147.691059 L90.8300392,142.475882 C92.7776471,144.735412 94.9953333,146.104824 97,146.104824 C99.0046667,146.104824 101.218549,144.735412 103.173765,142.475882 L106.620118,147.691059 C107.217333,148.588784 108.202549,149.07949 109.206784,149.07949 C109.792588,149.07949 110.389804,148.908314 110.914745,148.562157 C112.341216,147.618784 112.729216,145.697804 111.785843,144.271333 L108.518275,139.330039 C114.083412,141.083647 119.176863,144.100157 123.452471,148.208392 C124.049686,148.790392 124.821882,149.075686 125.597882,149.075686 L125.597882,149.075686 Z M97,115.247412 C98.308549,115.981569 101.123451,119.530627 102.02498,124.445294 L91.9712157,124.445294 C92.876549,119.530627 95.691451,115.981569 97,115.247412 L97,115.247412 Z M97,139.832157 C95.691451,139.098 92.876549,135.552745 91.9750196,130.634275 L102.028784,130.634275 C101.123451,135.552745 98.308549,139.094196 97,139.832157 L97,139.832157 Z" id="Shape" fill="#507C5C"></path>
                        <path d="M37.3545098,100.096392 C39.0624706,100.096392 40.447098,98.7079608 40.447098,97 C40.447098,95.2920392 39.0624706,93.9036078 37.3545098,93.9036078 L25.075451,93.9036078 C23.3674902,93.9036078 21.9828627,95.2882353 21.9828627,97 C21.9828627,98.7117647 23.3674902,100.096392 25.075451,100.096392 L37.3545098,100.096392 L37.3545098,100.096392 Z" id="Shape" fill="#507C5C"></path>
                        <path d="M168.924549,93.9036078 L156.64549,93.9036078 C154.937529,93.9036078 153.552902,95.2882353 153.552902,97 C153.552902,98.7117647 154.937529,100.096392 156.64549,100.096392 L168.928353,100.096392 C170.636314,100.096392 172.017137,98.7079608 172.017137,97 C172.017137,95.2920392 170.63251,93.9036078 168.924549,93.9036078 L168.924549,93.9036078 Z" id="Shape" fill="#507C5C"></path>
                        <path d="M135.666863,40.0552941 C149.631059,49.5612941 159.593529,63.7575294 163.720784,80.0383137 C164.074549,81.4419608 165.337451,82.3739216 166.718275,82.3739216 C166.969333,82.3739216 167.228,82.3434902 167.482863,82.2788235 C169.141373,81.8603922 170.141804,80.1752549 169.723373,78.5167451 C165.223333,60.7676471 154.370745,45.2932941 139.151255,34.9352157 C137.736196,33.9766275 135.811412,34.3418039 134.84902,35.7568627 C133.886627,37.1719216 134.251804,39.092902 135.666863,40.0552941 L135.666863,40.0552941 Z" id="Shape" fill="#507C5C"></path>
                        <path d="M26.5171373,82.2788235 C26.772,82.3434902 27.0268627,82.3739216 27.2779216,82.3739216 C28.662549,82.3739216 29.9216471,81.4419608 30.2792157,80.0383137 C37.4724314,51.653451 61.9012157,30.9068627 91.0696863,28.422902 C92.7738431,28.274549 94.0367451,26.7796078 93.8921961,25.075451 C93.7476471,23.3712941 92.248902,22.1121961 90.5447451,22.2567451 C58.7477647,24.9651373 32.1165098,47.579451 24.2766275,78.520549 C23.8543922,80.1752549 24.8586275,81.8603922 26.5171373,82.2788235 L26.5171373,82.2788235 Z" id="Shape" fill="#507C5C"></path>
                        <path d="M102.930314,28.422902 C110.709333,29.0847843 118.244902,31.0476078 125.339216,34.2581176 C125.750039,34.4445098 126.18749,34.532 126.613529,34.532 C127.792745,34.532 128.918706,33.854902 129.432235,32.7099216 C130.139765,31.1503137 129.447451,29.3168235 127.891647,28.613098 C120.158275,25.1172941 111.938,22.9756863 103.459059,22.2529412 C101.751098,22.1083922 100.256157,23.3674902 100.107804,25.075451 C99.959451,26.7796078 101.226157,28.2783529 102.930314,28.422902 L102.930314,28.422902 Z" id="Shape" fill="#507C5C"></path>
                        <path d="M167.482863,111.717373 C165.824353,111.298941 164.139216,112.303176 163.720784,113.961686 C155.983608,144.495765 128.545922,165.828157 97,165.828157 C85.892549,165.828157 75.2872157,163.264314 65.4807059,158.201294 C63.9629412,157.417686 62.0952157,158.011098 61.3116078,159.536471 C60.528,161.050431 61.1214118,162.921961 62.6429804,163.705569 C73.187451,169.14898 85.067098,172.024745 97,172.024745 C131.383647,172.024745 161.286275,148.775176 169.723373,115.487059 C170.145608,113.824745 169.141373,112.139608 167.482863,111.717373 L167.482863,111.717373 Z" id="Shape" fill="#507C5C"></path>
                        <path d="M55.4573725,151.88298 C43.0299608,142.456863 34.0869412,128.99098 30.2792157,113.961686 C29.8607843,112.303176 28.1756471,111.302745 26.5171373,111.717373 C24.8586275,112.139608 23.8543922,113.824745 24.2766275,115.479451 C28.4305098,131.866745 38.1723529,146.546078 51.7181176,156.812863 C52.2772941,157.235098 52.9353725,157.44051 53.5858431,157.44051 C54.5216078,157.44051 55.4459608,157.022078 56.0545882,156.215647 C57.085451,154.853843 56.8229804,152.913843 55.4573725,151.88298 L55.4573725,151.88298 Z" id="Shape" fill="#507C5C"></path>
                    </g>
                </g>
            </g>
        </g>
    </g>
</svg>