<?xml version="1.0" encoding="UTF-8" standalone="no"?>
<svg width="141px" height="183px" viewBox="0 0 141 183" version="1.1" xmlns="http://www.w3.org/2000/svg" xmlns:xlink="http://www.w3.org/1999/xlink">
    <!-- Generator: Sketch 40.3 (33839) - http://www.bohemiancoding.com/sketch -->
    <title>user</title>
    <desc>Created with Sketch.</desc>
    <defs></defs>
    <g id="Page-1" stroke="none" stroke-width="1" fill="none" fill-rule="evenodd">
        <g id="Desktop-CV" transform="translate(-701.000000, -1352.000000)">
            <g id="user" transform="translate(701.000000, 1352.000000)">
                <g id="Layer_1">
                    <g id="Group" fill="#B3404A">
                        <path d="M56.8949242,91.4824863 C31.7691515,91.4824863 11.3277121,70.9632539 11.3277121,45.7410645 C11.3277121,20.518875 31.7691515,0 56.8949242,0 C82.020697,0 102.462136,20.5192324 102.462136,45.7414219 C102.462136,70.9636113 82.021053,91.4824863 56.8949242,91.4824863 L56.8949242,91.4824863 Z M56.8949242,10.3991895 C37.4814318,10.3991895 21.6872955,26.253709 21.6872955,45.7414219 C21.6872955,65.2291348 37.4814318,81.0836543 56.8949242,81.0836543 C76.3084167,81.0836543 92.102553,65.2291348 92.102553,45.7414219 C92.102553,26.253709 76.3084167,10.3991895 56.8949242,10.3991895 L56.8949242,10.3991895 Z" id="Shape"></path>
                        <path d="M56.8949242,73.2132246 C51.6960833,73.2132246 46.4975985,71.2270313 42.5396288,67.2539297 C40.5168485,65.223416 40.5168485,61.9312031 42.5396288,59.8999746 C44.5624091,57.8694609 47.8420833,57.8694609 49.8655758,59.8999746 C53.7416515,63.7908691 60.048553,63.7908691 63.9249848,59.8999746 C65.9477652,57.8694609 69.2274394,57.8694609 71.2509318,59.8999746 C73.2737121,61.9304883 73.2737121,65.2227012 71.2509318,67.2539297 C67.29225,71.2263164 62.0937652,73.2132246 56.8949242,73.2132246 L56.8949242,73.2132246 Z" id="Shape"></path>
                        <path d="M108.440394,155.862029 C105.579447,155.862029 103.260424,153.534141 103.260424,150.662256 C103.260424,131.003695 91.5271591,113.525051 73.3680682,106.133924 C70.717197,105.054867 69.4396515,102.0225 70.5145985,99.3614941 C71.5899015,96.7004883 74.6103636,95.4187734 77.2612348,96.4971152 C99.3483864,105.487705 113.620364,126.748945 113.620364,150.662613 C113.620008,153.534141 111.300985,155.862029 108.440394,155.862029 L108.440394,155.862029 Z" id="Shape"></path>
                        <path d="M75.3815909,183 L20.3068485,183 C9.20274242,183 0.169840909,173.932564 0.169840909,162.786006 L0.169840909,150.662613 C0.169840909,126.748588 14.4418182,105.487348 36.5289697,96.4971152 C39.1809091,95.4187734 42.2010152,96.7008457 43.2756061,99.3614941 C44.350553,102.0225 43.0730076,105.055225 40.4221364,106.133924 C22.2626894,113.525051 10.5294242,131.004053 10.5294242,150.662256 L10.5294242,162.785648 C10.5294242,168.197373 14.9157348,172.600453 20.3068485,172.600453 L75.3815909,172.600453 C78.2425379,172.600453 80.5615606,174.928342 80.5615606,177.800227 C80.5615606,180.672111 78.2425379,183 75.3815909,183 L75.3815909,183 Z" id="Shape"></path>
                    </g>
                    <path d="M88.7840682,120.319641 C97.3163485,120.319641 101.144712,125.120531 102.650848,127.940232 C102.839917,128.294438 103.353356,128.293723 103.542424,127.939875 C105.043576,125.120174 108.850576,120.320355 117.3825,120.320355 C127.10153,120.320355 135.650545,126.980197 135.650545,139.141477 C135.650545,144.062461 134.651439,148.278609 131.878439,152.983354 C126.227758,162.571553 107.612553,175.001256 103.788818,177.450668 C103.366174,177.721594 102.830659,177.721951 102.407303,177.452098 C98.5803636,175.01448 79.9615985,162.646254 74.2667652,152.983354 C71.4941212,148.278252 70.5014242,144.062461 70.5014242,139.141477 C70.5017803,126.97984 79.0650379,120.319641 88.7840682,120.319641 L88.7840682,120.319641 Z" id="Shape" fill="#F4B2B0"></path>
                    <path d="M103.096992,182.853457 C101.868939,182.853457 100.671152,182.503898 99.6328788,181.842668 C95.7895606,179.394686 76.2895455,166.626146 69.8092424,155.63042 C66.7061742,150.365238 65.3225227,145.279482 65.3225227,139.140762 C65.3225227,123.370951 77.1259318,115.11951 88.7844242,115.11951 C95.5602576,115.11951 100.128159,117.574641 103.092008,120.24208 C106.050871,117.574641 110.613788,115.11951 117.382144,115.11951 C129.034583,115.11951 140.830515,123.370951 140.830515,139.140762 C140.830515,145.271619 139.444371,150.357375 136.336674,155.63042 C129.902659,166.548229 110.41653,179.373598 106.574992,181.833375 C105.534583,182.500682 104.331098,182.853457 103.096992,182.853457 L103.096992,182.853457 Z M88.7840682,125.519414 C82.7395833,125.519414 75.68175,129.086842 75.68175,139.141477 C75.68175,143.42482 76.5633561,146.668424 78.725,150.336287 C82.7196439,157.11515 95.39825,166.585758 103.091295,171.699393 C110.783985,166.560738 123.454758,157.065111 127.420205,150.336287 C129.586833,146.660203 130.470576,143.4166 130.470576,139.141477 C130.470576,129.087557 123.419864,125.519414 117.381788,125.519414 C111.862136,125.519414 109.293515,128.168268 108.110326,130.390359 C107.120477,132.250383 105.198818,133.40557 103.095924,133.40557 C100.996947,133.40557 99.0774242,132.253242 98.0865076,130.399295 C96.8972652,128.171484 94.3186742,125.519414 88.7840682,125.519414 L88.7840682,125.519414 Z" id="Shape" fill="#B3404A"></path>
                </g>
            </g>
        </g>
    </g>
</svg>